<svg width="21" height="16" viewBox="0 0 21 16" fill="none" xmlns="http://www.w3.org/2000/svg">
<path d="M20.3013 2.49275C19.8821 2.06763 19.3032 1.81643 18.6445 1.81643H15.3308V1.77778C15.3308 1.29469 15.1312 0.830918 14.7918 0.521739C14.4525 0.193237 13.9933 0 13.4943 0H7.5057C6.98669 0 6.52757 0.193237 6.18821 0.521739C5.84886 0.850241 5.64924 1.29469 5.64924 1.77778V1.81643H2.35551C1.69677 1.81643 1.11787 2.06763 0.698669 2.49275C0.279468 2.89855 0 3.47826 0 4.09662V13.7198C0 14.3575 0.259506 14.9179 0.698669 15.3237C1.11787 15.7295 1.71673 16 2.35551 16H18.6445C19.3032 16 19.8821 15.7488 20.3013 15.3237C20.7205 14.9179 21 14.3382 21 13.7198V4.09662C21 3.45894 20.7405 2.89855 20.3013 2.49275ZM19.962 13.7198H19.942C19.942 14.0676 19.8023 14.3768 19.5627 14.6087C19.3232 14.8406 19.0038 14.9758 18.6445 14.9758H2.35551C1.9962 14.9758 1.67681 14.8406 1.43726 14.6087C1.19772 14.3768 1.05798 14.0676 1.05798 13.7198V4.09662C1.05798 3.74879 1.19772 3.43961 1.43726 3.20773C1.67681 2.97585 1.9962 2.84058 2.35551 2.84058H6.20818C6.50761 2.84058 6.74715 2.6087 6.74715 2.31884V1.75845C6.74715 1.54589 6.827 1.35266 6.96673 1.21739C7.10646 1.08213 7.30608 1.00483 7.52567 1.00483H13.4943C13.7139 1.00483 13.9135 1.08213 14.0532 1.21739C14.193 1.35266 14.2728 1.54589 14.2728 1.75845V2.31884C14.2728 2.6087 14.5124 2.84058 14.8118 2.84058H18.6644C19.0238 2.84058 19.3432 2.97585 19.5827 3.20773C19.8222 3.43961 19.962 3.74879 19.962 4.09662V13.7198Z" fill="url(#paint0_linear_102_184)"/>
<path d="M10.5 4C9.2561 4 8.12195 4.5122 7.31707 5.31707C6.4939 6.14024 6 7.2561 6 8.5C6 9.7439 6.5122 10.878 7.31707 11.6829C8.14024 12.5061 9.2561 13 10.5 13C11.7439 13 12.878 12.4878 13.6829 11.6829C14.5061 10.8598 15 9.7439 15 8.5C15 7.2561 14.4878 6.12195 13.6829 5.31707C12.878 4.5122 11.7439 4 10.5 4ZM12.9878 11.0061C12.3476 11.628 11.4695 12.0305 10.5 12.0305C9.53049 12.0305 8.65244 11.628 8.0122 11.0061C7.37195 10.3659 6.98781 9.48781 6.98781 8.51829C6.98781 7.54878 7.39024 6.67073 8.0122 6.03049C8.65244 5.39024 9.53049 5.0061 10.5 5.0061C11.4695 5.0061 12.3476 5.40854 12.9878 6.03049C13.628 6.67073 14.0122 7.54878 14.0122 8.51829C14.0305 9.48781 13.628 10.3659 12.9878 11.0061Z" fill="#B9C4CA"/>
<path d="M18 6C18.5523 6 19 5.55228 19 5C19 4.44772 18.5523 4 18 4C17.4477 4 17 4.44772 17 5C17 5.55228 17.4477 6 18 6Z" fill="#CBD3D8"/>
<defs>
<linearGradient id="paint0_linear_102_184" x1="20.5" y1="16" x2="0.596595" y2="1.3686" gradientUnits="userSpaceOnUse">
<stop stop-color="#4B555E"/>
<stop offset="0.189066" stop-color="#ACB9C1"/>
<stop offset="0.480631" stop-color="white"/>
<stop offset="0.883002" stop-color="#ACB9C1"/>
<stop offset="1" stop-color="#4B555E"/>
</linearGradient>
</defs>
</svg>
