<svg width="87" height="87" viewBox="0 0 87 87" fill="none" xmlns="http://www.w3.org/2000/svg">
<path d="M37.409 65.635C31.6218 63.8355 27.7335 58.5507 27.7335 52.4843C27.7335 49.5191 28.6617 46.694 30.4181 44.3145C30.4582 44.2602 30.4943 44.2009 30.5245 44.1405C30.8147 43.5602 30.5791 42.8554 29.9987 42.5652C29.4734 42.3022 28.845 42.4711 28.5154 42.9357C26.4667 45.7187 25.3838 49.0202 25.3838 52.4843C25.3838 55.9923 26.4915 59.3277 28.587 62.1296C30.6125 64.8378 33.4977 66.8797 36.7113 67.8788C36.8275 67.915 36.945 67.9321 37.0605 67.9321C37.5613 67.9321 38.0255 67.6092 38.182 67.1057C38.3747 66.4861 38.0286 65.8277 37.409 65.635Z" fill="white"/>
<path d="M67.5247 41.4548C67.5247 39.2184 66.8277 37.0877 65.5088 35.2909L58.0716 24.2503C57.8532 23.9261 57.488 23.7318 57.0971 23.7318C56.7063 23.7318 56.3411 23.9261 56.1227 24.2503L52.9888 28.9025L43.2989 14.5185C43.0806 14.1943 42.7154 14 42.3246 14C41.9338 14 41.5686 14.1943 41.3503 14.5185L24.7166 39.2104C21.9412 42.982 20.4746 47.4555 20.4746 52.15C20.4746 64.1981 30.2765 74 42.3246 74C54.3727 74 64.1746 64.1981 64.1746 52.15C64.1746 51.1882 64.1103 50.2247 63.9854 49.2762C66.1541 47.364 67.5247 44.5667 67.5247 41.4548ZM57.0971 27.0096L63.5597 36.6031C63.5726 36.6231 63.5862 36.6427 63.6004 36.662C64.6304 38.0569 65.1749 39.7142 65.1749 41.4547C65.1749 45.9087 61.5513 49.5323 57.0971 49.5323C52.6431 49.5323 49.0195 45.9087 49.0195 41.4547C49.0195 39.7142 49.5639 38.0569 50.594 36.662C50.6076 36.6435 50.6207 36.6247 50.6332 36.6053L53.9609 31.6655C53.967 31.6564 53.9733 31.6475 53.9792 31.6382L57.0971 27.0096ZM61.8247 52.15C61.8247 62.9025 53.0769 71.6502 42.3245 71.6502C31.572 71.6502 22.8243 62.9025 22.8243 52.15C22.8243 47.9505 24.139 43.9494 26.6265 40.5795C26.6407 40.5604 26.6544 40.5403 26.6677 40.5197L42.3246 17.2777L51.5723 31.0054L48.6855 35.291C47.3667 37.0877 46.6697 39.2185 46.6697 41.4548C46.6697 47.2045 51.3474 51.8823 57.0971 51.8823C58.7784 51.8823 60.3677 51.4817 61.7755 50.772C61.8075 51.2302 61.8247 51.6903 61.8247 52.15Z" fill="white"/>
<path d="M52.9543 41.1685C52.9543 40.5993 53.0702 40.0499 53.2989 39.5357C53.5625 38.9427 53.2955 38.2483 52.7026 37.9848C52.1097 37.7215 51.4154 37.9881 51.1518 38.581C50.7886 39.3978 50.6045 40.2683 50.6045 41.1685C50.6045 43.3008 51.6638 45.2829 53.438 46.47C53.6387 46.6043 53.8656 46.6684 54.0903 46.6684C54.4693 46.6684 54.8413 46.4854 55.0678 46.1469C55.4286 45.6075 55.284 44.8778 54.7447 44.517C53.6236 43.7668 52.9543 42.5151 52.9543 41.1685Z" fill="white"/>
<path d="M41.7681 67.2632C41.4804 66.5073 40.4073 66.2917 39.8518 66.8826C39.1905 67.5235 39.5465 68.7002 40.4534 68.8646C41.3525 69.0616 42.1363 68.1073 41.7681 67.2632Z" fill="white"/>
<path d="M56.4775 47.5405C57.2351 48.0652 58.32 47.4851 58.3045 46.5642C58.3215 45.6432 57.2345 45.0619 56.4775 45.5867C55.7914 46.0167 55.7887 47.1119 56.4775 47.5405Z" fill="white"/>
</svg>
