<svg version="1.2" xmlns="http://www.w3.org/2000/svg" viewBox="0 0 87 87" width="24" height="24">
	<style>
		.s0 { fill: #ffffff } 
	</style>
	<g id="Map 1">
		<path class="s0" d="m36.41 64.64c-5.79-1.8-9.68-7.09-9.68-13.16 0-2.96 0.93-5.79 2.69-8.17q0.06-0.08 0.1-0.17c0.29-0.58 0.06-1.28-0.52-1.57-0.53-0.27-1.15-0.1-1.48 0.37-2.05 2.78-3.14 6.08-3.14 9.54 0 3.51 1.11 6.85 3.21 9.65 2.02 2.71 4.91 4.75 8.12 5.75q0.18 0.05 0.35 0.05c0.5 0 0.97-0.32 1.12-0.82 0.19-0.62-0.15-1.28-0.77-1.47z"/>
		<path class="s0" d="m66.52 40.45c0-2.23-0.69-4.36-2.01-6.16l-7.44-11.04c-0.22-0.32-0.58-0.52-0.97-0.52-0.39 0-0.76 0.2-0.98 0.52l-3.13 4.65-9.69-14.38c-0.22-0.33-0.58-0.52-0.98-0.52-0.39 0-0.75 0.19-0.97 0.52l-16.63 24.69c-2.78 3.77-4.25 8.25-4.25 12.94 0 12.05 9.81 21.85 21.85 21.85 12.05 0 21.85-9.8 21.85-21.85q0-1.45-0.18-2.87c2.16-1.92 3.53-4.71 3.53-7.83zm-10.42-14.44l6.46 9.59q0.02 0.03 0.04 0.06c1.03 1.4 1.57 3.05 1.57 4.79 0 4.46-3.62 8.08-8.07 8.08-4.46 0-8.08-3.62-8.08-8.08 0-1.74 0.54-3.39 1.57-4.79q0.02-0.03 0.04-0.05l3.33-4.94q0.01-0.02 0.02-0.03zm4.73 25.14c0 10.75-8.75 19.5-19.5 19.5-10.76 0-19.5-8.75-19.5-19.5 0-4.2 1.31-8.2 3.8-11.57q0.02-0.03 0.04-0.06l15.66-23.24 9.24 13.72-2.88 4.29c-1.32 1.8-2.02 3.93-2.02 6.16 0 5.75 4.68 10.43 10.43 10.43 1.68 0 3.27-0.4 4.68-1.11q0.05 0.69 0.05 1.38z"/>
		<path class="s0" d="m51.95 40.17q0.01-0.86 0.35-1.63c0.26-0.6 0-1.29-0.6-1.56-0.59-0.26-1.28 0.01-1.55 0.6q-0.54 1.23-0.55 2.59c0 2.13 1.06 4.11 2.84 5.3q0.31 0.2 0.65 0.2c0.38 0 0.75-0.18 0.98-0.52 0.36-0.54 0.21-1.27-0.33-1.63-1.12-0.75-1.79-2-1.79-3.35z"/>
		<path class="s0" d="m40.77 66.26c-0.29-0.75-1.36-0.97-1.92-0.38-0.66 0.64-0.3 1.82 0.6 1.98 0.9 0.2 1.69-0.75 1.32-1.6z"/>
		<path class="s0" d="m55.48 46.54c0.76 0.53 1.84-0.05 1.82-0.98 0.02-0.92-1.07-1.5-1.82-0.97-0.69 0.43-0.69 1.52 0 1.95z"/>
	</g>
</svg>