<svg width="20" height="19" viewBox="0 0 20 19" fill="none" xmlns="http://www.w3.org/2000/svg">
<g clip-path="url(#clip0_102_469)">
<path d="M14.9188 0H5.41901C2.80681 0 0.669128 2.13768 0.669128 4.74988V14.2501C0.669128 16.8616 2.80681 19 5.41901 19H14.9188C17.531 19 19.6687 16.8616 19.6687 14.2501V4.74988C19.6687 2.13768 17.531 0 14.9188 0ZM18.0853 14.2501C18.0853 15.9957 16.6653 17.4166 14.9188 17.4166H5.41901C3.6732 17.4166 2.2525 15.9957 2.2525 14.2501V4.74988C2.2525 3.00384 3.6732 1.58337 5.41901 1.58337H14.9188C16.6653 1.58337 18.0853 3.00384 18.0853 4.74988V14.2501Z" fill="white"/>
<path d="M15.3152 5.54169C15.971 5.54169 16.5026 5.01004 16.5026 4.35422C16.5026 3.6984 15.971 3.16675 15.3152 3.16675C14.6593 3.16675 14.1277 3.6984 14.1277 4.35422C14.1277 5.01004 14.6593 5.54169 15.3152 5.54169Z" fill="white"/>
<path d="M10.169 4.75C7.54517 4.75 5.41913 6.87627 5.41913 9.49988C5.41913 12.1225 7.54517 14.2502 10.169 14.2502C12.7921 14.2502 14.9189 12.1225 14.9189 9.49988C14.9189 6.87627 12.7921 4.75 10.169 4.75ZM10.169 12.6669C8.42032 12.6669 7.0025 11.249 7.0025 9.49988C7.0025 7.75073 8.42032 6.33337 10.169 6.33337C11.9177 6.33337 13.3355 7.75073 13.3355 9.49988C13.3355 11.249 11.9177 12.6669 10.169 12.6669Z" fill="white"/>
</g>
<defs>
<clipPath id="clip0_102_469">
<rect width="19" height="19" fill="white" transform="translate(0.666565)"/>
</clipPath>
</defs>
</svg>
