<svg width="87" height="87" viewBox="0 0 87 87" fill="none" xmlns="http://www.w3.org/2000/svg">
<path d="M44.367 42.4834C41.3746 42.4834 38.4493 41.5601 35.9611 39.8304C33.473 38.1007 31.5337 35.6422 30.3885 32.7658C29.2434 29.8894 28.9437 26.7242 29.5275 23.6706C30.1113 20.6171 31.5524 17.8122 33.6684 15.6106C35.7844 13.4091 38.4803 11.9099 41.4153 11.3025C44.3503 10.6951 47.3924 11.0068 50.1571 12.1983C52.9218 13.3897 55.2848 15.4074 56.9474 17.9961C58.6099 20.5848 59.4973 23.6283 59.4973 26.7417C59.4929 30.9153 57.8974 34.9166 55.0609 37.8678C52.2244 40.8189 48.3785 42.4789 44.367 42.4834ZM44.367 13.6236C41.8733 13.6236 39.4356 14.393 37.3621 15.8344C35.2887 17.2758 33.6726 19.3246 32.7183 21.7216C31.764 24.1186 31.5143 26.7562 32.0008 29.3009C32.4873 31.8456 33.6881 34.183 35.4515 36.0176C37.2148 37.8522 39.4614 39.1015 41.9072 39.6077C44.3531 40.1139 46.8882 39.8541 49.1921 38.8612C51.496 37.8683 53.4652 36.1869 54.8506 34.0297C56.2361 31.8724 56.9756 29.3362 56.9756 26.7417C56.9719 23.2637 55.6423 19.9293 53.2785 17.47C50.9148 15.0107 47.7099 13.6274 44.367 13.6236Z" fill="white"/>
<path d="M69.7598 76.8486H18.9749C17.6848 76.8457 16.4484 76.3728 15.5362 75.5332C14.6239 74.6936 14.1101 73.5556 14.1069 72.3683C14.1069 57.4742 27.682 45.3652 44.3674 45.3652C61.0527 45.3652 74.6278 57.4742 74.6278 72.3683C74.6247 73.5556 74.1108 74.6936 73.1986 75.5332C72.2863 76.3728 71.0499 76.8457 69.7598 76.8486ZM44.3674 47.787C29.1319 47.787 16.7383 58.8062 16.7383 72.3683C16.74 72.9137 16.9762 73.4364 17.3953 73.8221C17.8144 74.2078 18.3823 74.4252 18.9749 74.4268H69.7598C70.3525 74.4252 70.9204 74.2078 71.3395 73.8221C71.7585 73.4364 71.9947 72.9137 71.9965 72.3683C71.9965 58.8123 59.6028 47.787 44.3674 47.787Z" fill="white"/>
</svg>
