<svg width="87" height="87" viewBox="0 0 87 87" fill="none" xmlns="http://www.w3.org/2000/svg">
<path fill-rule="evenodd" clip-rule="evenodd" d="M21.5588 32.2473C17.135 32.2473 13.5359 35.8467 13.5359 40.2704V70.4011C13.5359 71.6226 14.5297 72.6165 15.7513 72.6165H32.1595C33.3811 72.6165 34.3749 71.6226 34.3749 70.4011V40.2702C34.3749 35.8462 30.7758 32.2475 26.352 32.2475L21.5588 32.2473ZM32.1593 74.1519H15.7511C13.6828 74.1519 12 72.4696 12 70.4011V40.2702C12 34.9992 16.288 30.7114 21.5588 30.7114H26.3518C31.6223 30.7114 35.9106 34.9997 35.9106 40.2704V70.4011C35.9106 72.4694 34.2276 74.1519 32.1593 74.1519Z" fill="white"/>
<path fill-rule="evenodd" clip-rule="evenodd" d="M21.5591 30.7107H26.3524C26.6231 30.7107 26.8948 30.7225 27.1654 30.7458V29.2236H20.7461V30.7456C21.0169 30.7225 21.2883 30.7109 21.5591 30.7107ZM27.9336 32.3905C27.8878 32.3905 27.8412 32.3864 27.7952 32.3782C27.3207 32.2908 26.8353 32.2468 26.3526 32.2468L21.5593 32.2466C21.0766 32.2466 20.5914 32.2906 20.117 32.3779C19.8927 32.4176 19.6617 32.3583 19.4867 32.2123C19.3117 32.0661 19.2104 31.8501 19.2104 31.6222V28.456C19.2104 28.0315 19.5542 27.6882 19.9783 27.6882L27.9336 27.688C28.3579 27.688 28.7017 28.0315 28.7017 28.456V31.6224C28.7017 31.8503 28.6004 32.0668 28.4252 32.2126C28.2861 32.3282 28.1118 32.3907 27.9336 32.3905Z" fill="white"/>
<path fill-rule="evenodd" clip-rule="evenodd" d="M19.7036 27.6879H28.2071V23.178H19.7036V27.6879ZM28.4745 29.2236H19.4367C18.7371 29.2236 18.168 28.6544 18.168 27.9548V22.9108C18.168 22.211 18.7371 21.6421 19.4367 21.6421H28.4745C29.1741 21.6421 29.7432 22.2112 29.7432 22.9111V27.9548C29.7432 28.6544 29.1741 29.2238 28.4745 29.2236Z" fill="white"/>
<path fill-rule="evenodd" clip-rule="evenodd" d="M22.3166 21.6425H25.5939V18.9376C25.3608 18.9528 25.1169 18.9608 24.8637 18.9608C23.9456 18.9606 23.1139 18.8789 22.3169 18.7829V21.6425H22.3166ZM26.3617 23.1784H21.5486C21.1243 23.1784 20.7808 22.8346 20.7808 22.4103V17.9122C20.7808 17.6921 20.8754 17.4822 21.0406 17.3367C21.206 17.1902 21.4254 17.1227 21.6446 17.1508L21.9056 17.1836C22.8408 17.3022 23.808 17.4254 24.8637 17.4254C25.3758 17.4252 25.8334 17.3891 26.2242 17.318C26.4486 17.2771 26.6788 17.338 26.8538 17.4836C27.0287 17.6298 27.1298 17.8456 27.1298 18.0735V22.4108C27.1298 22.8344 26.786 23.1784 26.3617 23.1784Z" fill="white"/>
<path fill-rule="evenodd" clip-rule="evenodd" d="M14.2234 16.9203L14.8299 18.0839C17.5314 16.6286 19.6595 16.8984 21.9023 17.1833C22.8389 17.3022 23.8072 17.4254 24.864 17.4254C25.6743 17.4251 26.2145 17.3382 26.5888 17.2358V15.863C25.1125 16.1714 24.0967 16.0457 22.1203 15.8003C21.6395 15.7405 21.097 15.6735 20.4702 15.6028C17.4559 15.2631 15.2227 16.2561 14.2234 16.9203ZM14.5217 19.9211C14.4547 19.9211 14.3874 19.9122 14.3214 19.8949C14.1141 19.8383 13.94 19.6985 13.8408 19.5082L12.5661 17.064C12.4078 16.7606 12.4694 16.3895 12.7169 16.1536C13.8365 15.0852 16.8713 13.652 20.6422 14.0765C21.2754 14.1476 21.8236 14.2158 22.3092 14.2761C24.5949 14.5596 25.365 14.655 27.1426 14.1394C27.3739 14.0728 27.6246 14.118 27.8178 14.2631C28.0111 14.4079 28.1244 14.6356 28.1244 14.8769V17.7782C28.1244 18.0846 27.9422 18.362 27.6607 18.4838C27.186 18.688 26.3796 18.9603 24.864 18.9603C23.7098 18.9601 22.6924 18.831 21.7086 18.7064C19.3657 18.4092 17.515 18.174 14.931 19.8023C14.8073 19.8805 14.6652 19.9213 14.5217 19.9211Z" fill="white"/>
<path fill-rule="evenodd" clip-rule="evenodd" d="M13.5361 61.8142H34.3749V53.3227H13.5361V61.8142ZM35.1428 63.3498H12.7681C12.3438 63.3498 12 63.0063 12 62.5822V52.5552C12 52.1306 12.3438 51.7873 12.7681 51.7873L35.1428 51.7871C35.5668 51.7871 35.9106 52.1306 35.9106 52.5554V62.5825C35.9108 63.0063 35.5668 63.3498 35.1428 63.3498Z" fill="white"/>
<path d="M73.0432 32.7749C71.3196 31.0513 68.9737 30.0459 66.4841 30.0459C63.9945 30.0459 61.6964 31.0034 59.925 32.7749L43.0725 49.6274C39.4817 53.2182 39.4817 59.107 43.0725 62.6977C44.796 64.4213 47.142 65.4267 49.6315 65.4267C52.1211 65.4267 54.4192 64.4691 56.1906 62.6977L64.6169 54.2714L73.0432 45.8452C76.6339 42.2544 76.6339 36.4135 73.0432 32.7749ZM55.0416 61.5965C53.6053 63.0328 51.6424 63.8467 49.6315 63.8467C47.6207 63.8467 45.6578 63.0328 44.2215 61.5965C41.2053 58.5803 41.2053 53.7448 44.2215 50.7286L52.1211 42.8289C52.169 42.8768 52.169 42.9247 52.2169 42.9726L62.9412 53.6969L55.0416 61.5965ZM71.8941 44.7919L64.0424 52.6436L53.318 41.9193C53.2702 41.8714 53.2223 41.8714 53.1744 41.8235L61.074 33.9239C62.5103 32.4876 64.4733 31.6737 66.4841 31.6737C68.5428 31.6737 70.4578 32.4876 71.8941 33.9239C74.9104 36.9401 74.9104 41.7757 71.8941 44.7919Z" fill="white"/>
<path d="M71.1766 36.0772C69.836 34.7367 68.1125 34.0664 66.2932 34.0664C64.4739 34.0664 62.7503 34.7846 61.4576 36.0772C61.1704 36.3645 61.1704 36.8911 61.4576 37.1784C61.7449 37.4656 62.2715 37.4656 62.5588 37.1784C63.5642 36.173 64.8569 35.6463 66.2932 35.6463C67.6816 35.6463 69.0221 36.173 70.0275 37.1784C70.1712 37.322 70.3627 37.4178 70.6021 37.4178C70.7936 37.4178 70.9851 37.322 71.1766 37.1784C71.4638 36.8911 71.4638 36.3645 71.1766 36.0772Z" fill="white"/>
</svg>
