<svg width="20" height="19" viewBox="0 0 20 19" fill="none" xmlns="http://www.w3.org/2000/svg">
<path fill-rule="evenodd" clip-rule="evenodd" d="M16.565 2.76117C14.779 0.981543 12.4036 0.0010437 9.87305 0C4.65858 0 0.414764 4.22339 0.412666 9.4143C0.411967 11.0737 0.847535 12.6935 1.67544 14.1213L0.333313 19L5.34841 17.6907C6.73027 18.4409 8.28599 18.8363 9.8692 18.8367H9.87316C15.087 18.8367 19.3313 14.613 19.3333 9.42184C19.3344 6.90605 18.3512 4.54068 16.565 2.76117ZM9.87305 17.2467H9.86979C8.45891 17.2461 7.07518 16.8688 5.86775 16.1559L5.58076 15.9863L2.60472 16.7632L3.39907 13.8755L3.21205 13.5795C2.42493 12.3335 2.00928 10.8935 2.00998 9.41488C2.01161 5.10034 5.53904 1.59014 9.87619 1.59014C11.9764 1.59083 13.9507 2.40585 15.4352 3.885C16.9197 5.36416 17.7368 7.33026 17.7361 9.42126C17.7342 13.7362 14.2071 17.2467 9.87305 17.2467ZM14.1861 11.3859C13.9498 11.268 12.7876 10.6991 12.5708 10.6205C12.3543 10.542 12.1965 10.5029 12.0391 10.7383C11.8815 10.9737 11.4285 11.5037 11.2906 11.6606C11.1526 11.8176 11.0149 11.8373 10.7784 11.7195C10.542 11.6018 9.78041 11.3533 8.87746 10.5518C8.17482 9.92803 7.70045 9.15767 7.56249 8.92225C7.42475 8.68661 7.56132 8.57157 7.66619 8.44215C7.92208 8.12591 8.17832 7.79436 8.25709 7.63746C8.33597 7.48044 8.29647 7.34302 8.23728 7.22531C8.17832 7.1076 7.70558 5.94968 7.50865 5.4785C7.31662 5.01997 7.12191 5.0819 6.97672 5.07471C6.83899 5.06786 6.68133 5.06647 6.52367 5.06647C6.36613 5.06647 6.11001 5.12527 5.89327 5.36091C5.67665 5.59644 5.06607 6.16549 5.06607 7.32342C5.06607 8.48135 5.91308 9.59996 6.03124 9.75698C6.14939 9.914 7.69812 12.2902 10.0693 13.309C10.6333 13.5516 11.0735 13.6963 11.4169 13.8047C11.9832 13.9837 12.4983 13.9585 12.9057 13.8979C13.3599 13.8303 14.3041 13.3288 14.5013 12.7793C14.6982 12.2297 14.6982 11.7588 14.639 11.6606C14.58 11.5625 14.4224 11.5037 14.1861 11.3859Z" fill="white"/>
</svg>
