<svg width="19" height="18" viewBox="0 0 19 18" fill="none" xmlns="http://www.w3.org/2000/svg">
<path d="M4.43333 17.9999C4.34023 17.9999 4.2465 17.979 4.15847 17.9372C3.93997 17.8315 3.8 17.6104 3.8 17.3666V14.1999H1.9C0.852467 14.1999 0 13.3475 0 12.2999V2.1666C0 1.11907 0.852467 0.266602 1.9 0.266602H17.1C18.1475 0.266602 19 1.11907 19 2.1666V12.2999C19 13.3475 18.1475 14.1999 17.1 14.1999H9.40563L4.82917 17.8612C4.71453 17.9531 4.57457 17.9999 4.43333 17.9999ZM1.9 1.53327C1.5504 1.53327 1.26667 1.81763 1.26667 2.1666V12.2999C1.26667 12.6489 1.5504 12.9333 1.9 12.9333H4.43333C4.78357 12.9333 5.06667 13.2164 5.06667 13.5666V16.0493L8.7875 13.072C8.90023 12.982 9.03893 12.9333 9.18333 12.9333H17.1C17.4496 12.9333 17.7333 12.6489 17.7333 12.2999V2.1666C17.7333 1.81763 17.4496 1.53327 17.1 1.53327H1.9Z" fill="white"/>
</svg>
