<svg width="18" height="17" viewBox="0 0 18 17" fill="none" xmlns="http://www.w3.org/2000/svg">
<path d="M10.6491 8.50013L17.6579 1.88033C18.114 1.44974 18.114 0.753533 17.6579 0.322943C17.202 -0.107648 16.4649 -0.107648 16.0089 0.322943L8.99989 6.94274L1.99106 0.322943C1.53493 -0.107648 0.798002 -0.107648 0.342092 0.322943C-0.114031 0.753533 -0.114031 1.44974 0.342092 1.88033L7.35093 8.50013L0.342092 15.1199C-0.114031 15.5505 -0.114031 16.2467 0.342092 16.6773C0.5693 16.8921 0.868044 17 1.16657 17C1.4651 17 1.76363 16.8921 1.99106 16.6773L8.99989 10.0575L16.0089 16.6773C16.2364 16.8921 16.5349 17 16.8334 17C17.132 17 17.4305 16.8921 17.6579 16.6773C18.114 16.2467 18.114 15.5505 17.6579 15.1199L10.6491 8.50013Z" fill="url(#paint0_linear_102_1060)"/>
<defs>
<linearGradient id="paint0_linear_102_1060" x1="17.4433" y1="7.2561" x2="-0.0931765" y2="7.29763" gradientUnits="userSpaceOnUse">
<stop stop-color="#4B555E"/>
<stop offset="0.5" stop-color="#ACB9C1"/>
<stop offset="0.75" stop-color="white"/>
<stop offset="0.875" stop-color="#ACB9C1"/>
<stop offset="1" stop-color="#4B555E"/>
</linearGradient>
</defs>
</svg>
